<?xml version="1.0" standalone="no"?><!DOCTYPE svg PUBLIC "-//W3C//DTD SVG 1.1//EN" "http://www.w3.org/Graphics/SVG/1.1/DTD/svg11.dtd"><svg t="1611134183150" class="icon" viewBox="0 0 1024 1024" version="1.1" xmlns="http://www.w3.org/2000/svg" p-id="1581" xmlns:xlink="http://www.w3.org/1999/xlink" width="200" height="200"><defs><style type="text/css"></style></defs><path d="M500.622222 521.398044m-500.622222 0a500.622222 500.622222 0 1 0 1001.244444 0 500.622222 500.622222 0 1 0-1001.244444 0Z" fill="#3777F7" p-id="1582"></path><path d="M502.692978 875.064889l-6.007467-3.003733c-9.0112-3.003733-219.477333-99.214222-219.477333-222.481067V330.888533h15.041422c117.259378 0 165.364622-36.067556 201.432178-75.1616l12.014933-12.014933 9.0112 12.014933c33.063822 39.094044 81.169067 75.1616 198.428445 75.1616H728.177778v318.691556c0 123.266844-210.443378 219.477333-219.477334 222.481067l-6.007466 3.003733zM307.268267 357.944889v291.6352c0 96.210489 162.360889 180.383289 195.424711 195.424711 33.063822-15.041422 195.424711-99.214222 195.424711-195.424711V357.944889c-90.203022-3.003733-150.3232-24.052622-195.424711-72.157867-36.090311 36.067556-87.199289 69.154133-195.424711 72.157867z" fill="#FFFFFF" p-id="1583"></path><path d="M502.692978 565.384533c-42.097778 0-78.165333-33.063822-78.165334-75.1616s36.067556-78.165333 78.165334-78.165333 78.165333 36.067556 78.165333 78.165333-36.067556 75.1616-78.165333 75.1616z m0-123.266844c-27.056356 0-48.105244 21.048889-48.105245 48.105244s21.048889 48.105244 48.105245 48.105245 48.105244-21.048889 48.105244-48.105245-21.048889-48.105244-48.105244-48.105244z m117.259378 252.541155h-30.060089v-18.045155a60.302222 60.302222 0 0 0-60.120178-60.120178h-54.112711a60.302222 60.302222 0 0 0-60.120178 60.120178v18.045155H385.479111v-18.045155c0-48.105244 39.094044-90.203022 90.203022-90.203022h51.108978c48.105244 0 90.203022 39.094044 90.203022 90.203022v18.045155h2.958223z" fill="#FFFFFF" p-id="1584"></path></svg>