<?xml version="1.0" standalone="no"?><!DOCTYPE svg PUBLIC "-//W3C//DTD SVG 1.1//EN" "http://www.w3.org/Graphics/SVG/1.1/DTD/svg11.dtd"><svg t="1611134164401" class="icon" viewBox="0 0 1024 1024" version="1.1" xmlns="http://www.w3.org/2000/svg" p-id="1429" xmlns:xlink="http://www.w3.org/1999/xlink" width="200" height="200"><defs><style type="text/css"></style></defs><path d="M500.622222 521.398044m-500.622222 0a500.622222 500.622222 0 1 0 1001.244444 0 500.622222 500.622222 0 1 0-1001.244444 0Z" fill="#AC6CFF" p-id="1430"></path><path d="M383.021511 533.799822a134.326044 134.326044 0 0 1-67.106133-116.189866c0-74.296889 60.666311-134.5536 135.509333-134.5536 74.865778 0 135.532089 60.256711 135.532089 134.5536a134.303289 134.303289 0 0 1-67.128889 116.189866c79.576178 28.8768 127.362844 109.340444 127.362845 212.741689h-30.1056c0-115.074844-64.1024-194.377956-165.660445-194.377955s-165.637689 79.280356-165.637689 194.377955h-30.128355c0-103.378489 47.809422-183.864889 127.362844-212.741689z m68.425956-11.537066c58.208711 0 105.403733-46.830933 105.403733-104.675556 0-57.799111-47.195022-104.630044-105.426489-104.630044-58.208711 0-105.403733 46.830933-105.403733 104.630044s47.172267 104.698311 105.403733 104.698311l0.022756-0.022755z m150.550755-179.382045c49.3568 0 89.383822 39.685689 89.383822 88.701156s-40.027022 88.723911-89.383822 88.723911v29.9008c65.991111 0 119.466667-53.111467 119.466667-118.601956 0-65.513244-53.498311-118.624711-119.466667-118.624711v29.9008z m0 207.303111c86.812444 0 141.562311 67.720533 141.562311 166.456889H773.688889c0-113.959822-66.605511-196.357689-171.690667-196.357689v29.9008z" fill="#FFFFFF" p-id="1431"></path></svg>